HIERARCHY
ROOT Hips
{
	OFFSET 56.786499 7.177056 84.163002
	CHANNELS 6 Xposition Yposition Zposition Xrotation Yrotation Zrotation
	JOINT spine
	{
		OFFSET 0.000000 -0.342408 5.954384
		CHANNELS 3 Xrotation Yrotation Zrotation
		JOINT spine1
		{
			OFFSET 0.000000 -0.000001 8.856018
			CHANNELS 3 Xrotation Yrotation Zrotation
			JOINT spine2
			{
				OFFSET 0.000000 -0.000001 8.485672
				CHANNELS 3 Xrotation Yrotation Zrotation
				JOINT Neck
				{
					OFFSET 0.000000 -1.038703 21.786301
					CHANNELS 3 Xrotation Yrotation Zrotation
					JOINT Head
					{
						OFFSET 0.000000 -0.000001 6.582199
						CHANNELS 3 Xrotation Yrotation Zrotation
						End Site
						{
							OFFSET 0.000000 5.254357 15.932602
						}
					}
				}
				JOINT RightShoulder
				{
					OFFSET -3.573071 0.497524 9.163864
					CHANNELS 3 Xrotation Yrotation Zrotation
					JOINT RightArm
					{
						OFFSET 0.000000 -0.000002 12.019196
						CHANNELS 3 Xrotation Yrotation Zrotation
						JOINT RightArmRoll
						{
							OFFSET 0.000000 -0.000001 6.067551
							CHANNELS 3 Xrotation Yrotation Zrotation
							JOINT RightForeArm
							{
								OFFSET 0.000000 -0.000003 17.672607
								CHANNELS 3 Xrotation Yrotation Zrotation
								JOINT RightForeArmRoll
								{
									OFFSET 0.000000 -0.000001 6.808731
									CHANNELS 3 Xrotation Yrotation Zrotation
									JOINT RightHand
									{
										OFFSET 0.000000 -0.000002 13.663605
										CHANNELS 3 Xrotation Yrotation Zrotation
										End Site
										{
											OFFSET 0.000000 0.000000 0.100006
										}
									}
								}
							}
						}
					}
				}
				JOINT LeftShoulder
				{
					OFFSET 3.573071 0.497524 9.163864
					CHANNELS 3 Xrotation Yrotation Zrotation
					JOINT LeftArm
					{
						OFFSET 0.000000 -0.000002 12.019196
						CHANNELS 3 Xrotation Yrotation Zrotation
						JOINT LeftArmRoll
						{
							OFFSET 0.000000 -0.000001 6.067551
							CHANNELS 3 Xrotation Yrotation Zrotation
							JOINT LeftForeArm
							{
								OFFSET 0.000000 -0.000003 17.672607
								CHANNELS 3 Xrotation Yrotation Zrotation
								JOINT LeftForeArmRoll
								{
									OFFSET 0.000000 -0.000001 6.808731
									CHANNELS 3 Xrotation Yrotation Zrotation
									JOINT LeftHand
									{
										OFFSET 0.000000 -0.000002 13.663605
										CHANNELS 3 Xrotation Yrotation Zrotation
										End Site
										{
											OFFSET 0.000000 0.000000 0.100006
										}
									}
								}
							}
						}
					}
				}
			}
		}
	}
	JOINT RightUpLeg
	{
		OFFSET -5.277740 0.811859 -0.967796
		CHANNELS 3 Xrotation Yrotation Zrotation
		JOINT RightUpLegRoll
		{
			OFFSET 0.000000 -0.000003 16.021400
			CHANNELS 3 Xrotation Yrotation Zrotation
			JOINT RightLeg
			{
				OFFSET 0.000000 0.000003 -19.840096
				CHANNELS 3 Xrotation Yrotation Zrotation
				JOINT RightLegRoll
				{
					OFFSET 0.000000 -0.000003 19.904999
					CHANNELS 3 Xrotation Yrotation Zrotation
					JOINT RightFoot
					{
						OFFSET 0.000000 -0.000003 16.567497
						CHANNELS 3 Xrotation Yrotation Zrotation
						JOINT RightToeBase
						{
							OFFSET 0.000000 -0.000002 13.849602
							CHANNELS 3 Xrotation Yrotation Zrotation
							End Site
							{
								OFFSET 0.005871 0.773116 6.707275
							}
						}
					}
				}
			}
		}
	}
	JOINT LeftUpLeg
	{
		OFFSET 5.277740 0.811859 -0.967796
		CHANNELS 3 Xrotation Yrotation Zrotation
		JOINT LeftUpLegRoll
		{
			OFFSET 0.000000 -0.000003 16.021500
			CHANNELS 3 Xrotation Yrotation Zrotation
			JOINT LeftLeg
			{
				OFFSET 0.000000 -0.000003 19.839996
				CHANNELS 3 Xrotation Yrotation Zrotation
				JOINT LeftLegRoll
				{
					OFFSET 0.000000 -0.000003 20.089005
					CHANNELS 3 Xrotation Yrotation Zrotation
					JOINT LeftFoot
					{
						OFFSET 0.000000 -0.000002 16.383499
						CHANNELS 3 Xrotation Yrotation Zrotation
						JOINT LeftToeBase
						{
							OFFSET 0.000000 -0.000002 13.849594
							CHANNELS 3 Xrotation Yrotation Zrotation
							End Site
							{
								OFFSET -0.026310 0.773116 6.707275
							}
						}
					}
				}
			}
		}
	}
}
MOTION
Frames: 11
Frame Time: 0.041667
51.964401 5.695724 90.659096 -1.679439 -0.036273 5.531936 -0.907978 0.643976 0.022999 2.186672 1.287682 0.051002 3.831920 1.288165 0.031729 20.372228 10.503807 -15.450112 -23.865820 -22.415644 -18.939239 -19.468336 -48.756937 -23.227523 158.235033 -99.286881 179.825603 0.000004 -0.000006 0.000001 25.755136 3.599947 -3.005942 0.000003 0.000002 -3.000002 -5.000153 -7.999944 0.000007 -1.106973 48.792395 -0.035018 607.706574 96.754698 -620.436462 0.000001 0.000002 -0.000001 32.196289 -3.526515 3.264432 -0.000004 0.000019 3.000003 -5.000150 7.999944 -0.000017 -6.183776 -180.580626 0.265331 -179.999991 0.000005 -1.196003 155.090906 1.878499 -0.745890 0.000004 -0.000003 0.463574 70.595920 6.804741 2.251435 25.456957 -7.355614 0.000001 -5.593274 -179.721333 0.768544 -0.000004 -0.000004 -1.174030 -21.846053 0.887207 0.880830 0.000001 0.000001 -0.238059 67.700336 -6.874519 -2.263803 25.456955 7.355613 0.000000 
51.973400 5.739875 90.546600 -1.741190 0.056133 5.513956 -0.898752 0.633965 0.024891 2.205110 1.267651 0.054409 3.850356 1.268182 0.036074 20.456128 10.092129 -15.387528 -23.991415 -22.139025 -18.832334 -19.615897 -50.044038 -23.395915 159.411807 -99.611356 181.302631 0.000003 -0.000009 -0.000000 25.132712 3.606240 -2.981841 0.000002 0.000002 -3.000003 -5.000153 -7.999946 0.000004 -1.075247 48.843595 -0.069285 614.837838 96.169965 -626.823344 0.000000 0.000002 -0.000001 31.967912 -3.529785 3.256237 0.000000 0.000020 3.000003 -5.000154 7.999947 -0.000018 -6.143600 -180.881933 0.142844 -179.999991 0.000005 -1.200005 154.938921 1.909697 -0.745248 0.000003 -0.000003 0.466264 70.598399 6.803913 2.253442 25.456955 -7.355615 0.000001 -5.641844 -179.650709 0.774510 -0.000003 -0.000004 -1.176381 -22.197515 0.888828 0.896426 -0.000001 0.000000 -0.245939 67.751044 -6.872480 -2.265638 25.456953 7.355613 0.000000 
51.928699 5.775941 90.401398 -1.803427 0.141636 5.500049 -0.889803 0.625072 0.026631 2.222989 1.249859 0.057538 3.868222 1.250435 0.040090 20.555497 9.680012 -15.327979 -24.132112 -21.860582 -18.729483 -19.784278 -51.293348 -23.582048 160.466948 -99.915777 182.634272 0.000004 -0.000010 0.000001 24.527430 3.612179 -2.958480 0.000002 0.000000 -3.000001 -5.000151 -7.999944 0.000007 -1.027353 48.903536 -0.122047 623.055375 95.717697 -634.310325 -0.000000 -0.000001 -0.000001 31.696733 -3.533447 3.245927 -0.000004 0.000023 3.000002 -5.000153 7.999941 -0.000018 -6.098845 -181.169374 0.026718 -179.999991 0.000005 -1.205004 154.788916 1.941747 -0.744073 0.000001 -0.000003 0.468937 70.600879 6.803084 2.255548 25.456957 -7.355616 0.000000 -5.689306 -179.576110 0.783961 -0.000004 -0.000004 -1.178730 -22.546764 0.888983 0.911452 0.000003 0.000000 -0.253619 67.799497 -6.870591 -2.267445 25.456952 7.355615 -0.000001 
51.936100 5.824426 90.284790 -1.865574 0.218478 5.490266 -0.881352 0.617472 0.028177 2.239880 1.234656 0.060305 3.885104 1.235275 0.043680 20.672570 9.271593 -15.272139 -24.288890 -21.582616 -18.632068 -19.973223 -52.492534 -23.785920 161.390212 -100.189866 183.801565 0.000004 -0.000008 -0.000000 23.943489 3.617764 -2.936033 0.000002 0.000001 -2.999999 -5.000152 -7.999948 0.000005 -0.962782 48.975001 -0.193344 632.125702 95.421807 -642.667143 -0.000001 0.000001 -0.000001 31.372346 -3.537609 3.233042 -0.000001 0.000022 3.000000 -5.000151 7.999949 -0.000017 -6.050048 -181.436981 -0.081732 -179.999991 0.000005 -1.209006 154.640223 1.971904 -0.743629 0.000002 -0.000003 0.471666 70.604198 6.802199 2.257593 25.456960 -7.355613 0.000000 -5.734942 -179.493546 0.797131 -0.000004 -0.000004 -1.181040 -22.892011 0.888408 0.925988 0.000001 0.000001 -0.261068 67.844959 -6.868828 -2.269063 25.456952 7.355614 -0.000000 
51.893600 5.868604 90.102097 -1.927025 0.284890 5.484665 -0.873612 0.611333 0.029486 2.255343 1.222383 0.062637 3.900570 1.223031 0.046743 20.809542 8.870879 -15.220831 -24.463006 -21.307112 -18.541462 -20.181542 -53.628969 -24.006822 162.173785 -100.423001 184.787640 0.000004 -0.000005 -0.000000 23.385009 3.622997 -2.914660 0.000001 0.000001 -3.000000 -5.000153 -7.999944 0.000005 -0.880998 49.061044 -0.283259 641.551090 95.296070 -651.399786 -0.000000 0.000000 0.000000 30.984214 -3.542358 3.217134 0.000000 0.000020 3.000000 -5.000154 7.999944 -0.000017 -5.997773 -181.684753 -0.180527 -179.999991 0.000005 -1.212995 154.492144 2.000179 -0.742905 0.000002 -0.000003 0.474524 70.608877 6.801297 2.259753 25.456959 -7.355615 0.000001 -5.778035 -179.402049 0.814557 -0.000006 -0.000004 -1.183300 -23.231352 0.887840 0.940132 -0.000001 0.000001 -0.268258 67.886562 -6.867163 -2.270844 25.456953 7.355613 -0.000001 
51.866699 5.874685 89.986099 -1.987195 0.339111 5.483275 -0.866798 0.606830 0.030516 2.268969 1.213378 0.064453 3.914190 1.214052 0.049180 20.968474 8.481984 -15.174568 -24.655598 -21.036329 -18.459128 -20.407960 -54.690359 -24.244013 162.810468 -100.604418 185.576759 0.000003 -0.000006 -0.000000 22.856186 3.627843 -2.894508 0.000002 0.000000 -3.000000 -5.000152 -7.999949 0.000008 -0.781404 49.164364 -0.391954 650.664912 95.338082 -659.845014 0.000000 0.000001 0.000001 30.521616 -3.547786 3.197754 0.000001 0.000022 3.000000 -5.000150 7.999943 -0.000016 -5.942545 -181.907718 -0.268193 -179.999991 0.000005 -1.216999 154.343970 2.027465 -0.741461 0.000001 -0.000003 0.477584 70.615967 6.800261 2.262041 25.456957 -7.355614 0.000001 -5.817874 -179.300621 0.836772 -0.000004 -0.000004 -1.185490 -23.562901 0.888012 0.953995 0.000001 0.000001 -0.275160 67.923615 -6.865691 -2.272650 25.456959 7.355615 -0.000001 
51.836098 5.931177 89.855301 -2.045488 0.379375 5.486130 -0.861120 0.604133 0.031227 2.280317 1.207983 0.065680 3.925536 1.208679 0.050891 21.151475 8.108988 -15.134405 -24.867723 -20.772325 -18.386458 -20.649626 -55.664423 -24.495451 163.292106 -100.723338 186.151806 0.000003 -0.000006 0.000001 22.361239 3.632295 -2.875741 0.000001 0.000001 -3.000000 -5.000154 -7.999945 0.000006 -0.663346 49.288001 -0.519659 658.858899 95.528877 -667.398712 -0.000000 0.000000 0.000000 29.974227 -3.553946 3.174484 0.000000 0.000025 3.000000 -5.000153 7.999946 -0.000018 -5.884936 -182.102884 -0.343012 -179.999991 0.000005 -1.221000 154.195031 2.051944 -0.741149 -0.000000 -0.000003 0.480918 70.625925 6.799224 2.264154 25.456955 -7.355615 0.000001 -5.853731 -179.186270 0.864114 -0.000004 -0.000004 -1.187580 -23.884758 0.889658 0.967707 0.000001 0.000001 -0.281744 67.955348 -6.864359 -2.274413 25.456953 7.355613 -0.000000 
51.817699 5.923775 89.715797 -2.101302 0.403920 5.493240 -0.856798 0.603416 0.031574 2.288958 1.206547 0.066236 3.934175 1.207249 0.051777 21.360655 7.755947 -15.100920 -25.100529 -20.517402 -18.325030 -20.903369 -56.538626 -24.758659 163.607906 -100.769093 186.493275 0.000003 -0.000006 -0.000001 21.904273 3.636357 -2.858483 0.000001 -0.000003 -2.999999 -5.000153 -7.999946 0.000003 -0.526089 49.434703 -0.666727 665.756789 95.839029 -673.688441 0.000000 -0.000001 0.000000 29.331339 -3.560920 3.146944 0.000002 0.000022 3.000001 -5.000153 7.999945 -0.000015 -5.825479 -182.268256 -0.403146 -179.999991 0.000005 -1.225003 154.044535 2.073622 -0.741942 0.000001 -0.000003 0.484601 70.639749 6.797997 2.266500 25.456957 -7.355615 0.000001 -5.884908 -179.057985 0.897131 -0.000005 -0.000004 -1.189550 -24.195030 0.893507 0.981410 0.000001 0.000001 -0.287981 67.981030 -6.863147 -2.276378 25.456955 7.355613 0.000000 
51.777802 5.980797 89.493896 -2.160337 0.411666 5.505830 -0.852111 0.604907 0.031585 2.298332 1.209536 0.066175 3.943549 1.210238 0.051902 21.583942 7.419191 -15.072718 -25.343523 -20.268936 -18.272277 -21.177387 -57.311878 -25.046538 163.746504 -100.747414 186.597421 0.000003 -0.000005 -0.000002 21.510945 3.639900 -2.843925 0.000002 -0.000002 -2.999976 -5.000152 -7.999941 0.000006 -0.368296 49.601114 -0.836456 671.360057 96.242372 -678.709505 0.000000 -0.000000 -0.000001 28.578907 -3.568751 3.114778 0.000001 0.000023 2.999977 -5.000151 7.999944 -0.000016 -5.755545 -182.401868 -0.448255 -179.999991 0.000005 -1.229005 153.896374 2.092568 -0.742041 0.000001 -0.000003 0.488425 70.655684 6.796725 2.268810 25.427360 -7.355617 -0.003888 -5.906756 -178.913786 0.936438 -0.000004 -0.000004 -1.191410 -24.495509 0.898768 0.994779 0.000002 0.000000 -0.293802 67.999567 -6.861173 -2.281041 25.425541 7.355618 -0.002218 
51.778004 6.012752 89.359291 -2.227436 0.403831 5.524667 -0.845552 0.608572 0.031329 2.311441 1.216869 0.065618 3.956665 1.217572 0.051420 21.810181 7.091325 -15.047347 -25.587962 -20.022785 -18.224739 -21.479470 -57.997499 -25.370922 163.722817 -100.673881 186.494887 0.000004 -0.000003 -0.000000 21.195190 3.642868 -2.832717 0.000002 -0.000002 -2.999921 -5.000152 -7.999944 0.000006 -0.189405 49.781451 -1.031445 675.858529 96.716312 -682.643803 -0.000000 -0.000000 0.000001 27.718643 -3.577350 3.078372 -0.000001 0.000021 2.999920 -5.000157 7.999947 -0.000016 -5.668111 -182.506712 -0.479986 -179.999991 0.000005 -1.232995 153.754143 2.110645 -0.741690 0.000001 -0.000003 0.492152 70.671721 6.795448 2.271310 25.346549 -7.355589 -0.014520 -5.916672 -178.754670 0.982052 -0.000004 -0.000004 -1.193180 -24.789798 0.904032 1.007422 -0.000002 0.000000 -0.299190 68.011131 -6.857698 -2.290044 25.339577 7.355671 -0.008240 
51.740700 6.050896 89.206902 -2.300770 0.382101 5.549160 -0.837652 0.614193 0.030825 2.327245 1.228127 0.064593 3.972465 1.228822 0.050374 22.042398 6.770822 -15.024668 -25.836980 -19.778370 -18.182157 -21.805401 -58.605154 -25.727251 163.559630 -100.553253 186.212144 0.000003 -0.000005 -0.000002 20.943566 3.645349 -2.824205 0.000003 -0.000001 -2.999839 -5.000154 -7.999949 0.000008 0.010235 49.974496 -1.251062 679.412796 97.238733 -685.653184 -0.000000 0.000000 -0.000001 26.763881 -3.586494 3.038371 -0.000001 0.000022 2.999839 -5.000154 7.999943 -0.000017 -5.566228 -182.586789 -0.499547 -179.999991 0.000005 -1.236997 153.616801 2.127867 -0.741861 0.000000 -0.000003 0.495816 70.688148 6.794036 2.274064 25.226233 -7.355527 -0.030351 -5.917076 -178.582590 1.033432 -0.000003 -0.000004 -1.194890 -25.078578 0.909104 1.019391 0.000001 0.000001 -0.304193 68.016779 -6.853028 -2.302584 25.211806 7.355800 -0.017227 
